<?xml version="1.0" encoding="utf-8"?>
<svg xmlns="http://www.w3.org/2000/svg" xmlns:xlink="http://www.w3.org/1999/xlink" width="576" height="384" viewBox="0 0 576 384">
<defs>
  <clipPath id="clip8800">
    <rect x="0" y="0" width="576" height="384"/>
  </clipPath>
</defs>
<polygon clip-path="url(#clip8800)" points="
0,384 576,384 576,0 0,0 
  " fill="#ffffff" fill-opacity="1"/>
<defs>
  <clipPath id="clip8801">
    <rect x="115" y="0" width="404" height="384"/>
  </clipPath>
</defs>
<polygon clip-path="url(#clip8800)" points="
32.4745,359.869 556.315,359.869 556.315,11.811 32.4745,11.811 
  " fill="#ffffff" fill-opacity="1"/>
<defs>
  <clipPath id="clip8802">
    <rect x="32" y="11" width="525" height="349"/>
  </clipPath>
</defs>
<polyline clip-path="url(#clip8802)" style="stroke:#000000; stroke-width:0.5; stroke-opacity:0.1; fill:none" points="
  102.21,359.869 102.21,11.811 
  "/>
<polyline clip-path="url(#clip8802)" style="stroke:#000000; stroke-width:0.5; stroke-opacity:0.1; fill:none" points="
  212.03,359.869 212.03,11.811 
  "/>
<polyline clip-path="url(#clip8802)" style="stroke:#000000; stroke-width:0.5; stroke-opacity:0.1; fill:none" points="
  321.85,359.869 321.85,11.811 
  "/>
<polyline clip-path="url(#clip8802)" style="stroke:#000000; stroke-width:0.5; stroke-opacity:0.1; fill:none" points="
  431.669,359.869 431.669,11.811 
  "/>
<polyline clip-path="url(#clip8802)" style="stroke:#000000; stroke-width:0.5; stroke-opacity:0.1; fill:none" points="
  541.489,359.869 541.489,11.811 
  "/>
<polyline clip-path="url(#clip8802)" style="stroke:#000000; stroke-width:0.5; stroke-opacity:0.1; fill:none" points="
  32.4745,296.744 556.315,296.744 
  "/>
<polyline clip-path="url(#clip8802)" style="stroke:#000000; stroke-width:0.5; stroke-opacity:0.1; fill:none" points="
  32.4745,226.429 556.315,226.429 
  "/>
<polyline clip-path="url(#clip8802)" style="stroke:#000000; stroke-width:0.5; stroke-opacity:0.1; fill:none" points="
  32.4745,156.114 556.315,156.114 
  "/>
<polyline clip-path="url(#clip8802)" style="stroke:#000000; stroke-width:0.5; stroke-opacity:0.1; fill:none" points="
  32.4745,85.7985 556.315,85.7985 
  "/>
<polyline clip-path="url(#clip8802)" style="stroke:#000000; stroke-width:0.5; stroke-opacity:0.1; fill:none" points="
  32.4745,15.4835 556.315,15.4835 
  "/>
<polyline clip-path="url(#clip8800)" style="stroke:#000000; stroke-width:1; stroke-opacity:1; fill:none" points="
  32.4745,359.869 556.315,359.869 
  "/>
<polyline clip-path="url(#clip8800)" style="stroke:#000000; stroke-width:1; stroke-opacity:1; fill:none" points="
  32.4745,359.869 32.4745,11.811 
  "/>
<polyline clip-path="url(#clip8800)" style="stroke:#000000; stroke-width:1; stroke-opacity:1; fill:none" points="
  102.21,359.869 102.21,354.648 
  "/>
<polyline clip-path="url(#clip8800)" style="stroke:#000000; stroke-width:1; stroke-opacity:1; fill:none" points="
  212.03,359.869 212.03,354.648 
  "/>
<polyline clip-path="url(#clip8800)" style="stroke:#000000; stroke-width:1; stroke-opacity:1; fill:none" points="
  321.85,359.869 321.85,354.648 
  "/>
<polyline clip-path="url(#clip8800)" style="stroke:#000000; stroke-width:1; stroke-opacity:1; fill:none" points="
  431.669,359.869 431.669,354.648 
  "/>
<polyline clip-path="url(#clip8800)" style="stroke:#000000; stroke-width:1; stroke-opacity:1; fill:none" points="
  541.489,359.869 541.489,354.648 
  "/>
<polyline clip-path="url(#clip8800)" style="stroke:#000000; stroke-width:1; stroke-opacity:1; fill:none" points="
  32.4745,296.744 40.3321,296.744 
  "/>
<polyline clip-path="url(#clip8800)" style="stroke:#000000; stroke-width:1; stroke-opacity:1; fill:none" points="
  32.4745,226.429 40.3321,226.429 
  "/>
<polyline clip-path="url(#clip8800)" style="stroke:#000000; stroke-width:1; stroke-opacity:1; fill:none" points="
  32.4745,156.114 40.3321,156.114 
  "/>
<polyline clip-path="url(#clip8800)" style="stroke:#000000; stroke-width:1; stroke-opacity:1; fill:none" points="
  32.4745,85.7985 40.3321,85.7985 
  "/>
<polyline clip-path="url(#clip8800)" style="stroke:#000000; stroke-width:1; stroke-opacity:1; fill:none" points="
  32.4745,15.4835 40.3321,15.4835 
  "/>
<g clip-path="url(#clip8800)">
<text style="fill:#000000; fill-opacity:1; font-family:Arial,Helvetica Neue,Helvetica,sans-serif; font-size:12; text-anchor:middle;" transform="rotate(0, 102.21, 373.549)" x="102.21" y="373.549">2</text>
</g>
<g clip-path="url(#clip8800)">
<text style="fill:#000000; fill-opacity:1; font-family:Arial,Helvetica Neue,Helvetica,sans-serif; font-size:12; text-anchor:middle;" transform="rotate(0, 212.03, 373.549)" x="212.03" y="373.549">4</text>
</g>
<g clip-path="url(#clip8800)">
<text style="fill:#000000; fill-opacity:1; font-family:Arial,Helvetica Neue,Helvetica,sans-serif; font-size:12; text-anchor:middle;" transform="rotate(0, 321.85, 373.549)" x="321.85" y="373.549">6</text>
</g>
<g clip-path="url(#clip8800)">
<text style="fill:#000000; fill-opacity:1; font-family:Arial,Helvetica Neue,Helvetica,sans-serif; font-size:12; text-anchor:middle;" transform="rotate(0, 431.669, 373.549)" x="431.669" y="373.549">8</text>
</g>
<g clip-path="url(#clip8800)">
<text style="fill:#000000; fill-opacity:1; font-family:Arial,Helvetica Neue,Helvetica,sans-serif; font-size:12; text-anchor:middle;" transform="rotate(0, 541.489, 373.549)" x="541.489" y="373.549">10</text>
</g>
<g clip-path="url(#clip8800)">
<text style="fill:#000000; fill-opacity:1; font-family:Arial,Helvetica Neue,Helvetica,sans-serif; font-size:12; text-anchor:end;" transform="rotate(0, 26.7145, 301.244)" x="26.7145" y="301.244">0.2</text>
</g>
<g clip-path="url(#clip8800)">
<text style="fill:#000000; fill-opacity:1; font-family:Arial,Helvetica Neue,Helvetica,sans-serif; font-size:12; text-anchor:end;" transform="rotate(0, 26.7145, 230.929)" x="26.7145" y="230.929">0.4</text>
</g>
<g clip-path="url(#clip8800)">
<text style="fill:#000000; fill-opacity:1; font-family:Arial,Helvetica Neue,Helvetica,sans-serif; font-size:12; text-anchor:end;" transform="rotate(0, 26.7145, 160.614)" x="26.7145" y="160.614">0.6</text>
</g>
<g clip-path="url(#clip8800)">
<text style="fill:#000000; fill-opacity:1; font-family:Arial,Helvetica Neue,Helvetica,sans-serif; font-size:12; text-anchor:end;" transform="rotate(0, 26.7145, 90.2985)" x="26.7145" y="90.2985">0.8</text>
</g>
<g clip-path="url(#clip8800)">
<text style="fill:#000000; fill-opacity:1; font-family:Arial,Helvetica Neue,Helvetica,sans-serif; font-size:12; text-anchor:end;" transform="rotate(0, 26.7145, 19.9835)" x="26.7145" y="19.9835">1.0</text>
</g>
<circle clip-path="url(#clip8802)" style="fill:#000000; stroke:none; fill-opacity:1" cx="47.3002" cy="331.114" r="4"/>
<circle clip-path="url(#clip8802)" style="fill:#009af9; stroke:none; fill-opacity:1" cx="47.3002" cy="331.114" r="3"/>
<circle clip-path="url(#clip8802)" style="fill:#000000; stroke:none; fill-opacity:1" cx="102.21" cy="138.899" r="4"/>
<circle clip-path="url(#clip8802)" style="fill:#009af9; stroke:none; fill-opacity:1" cx="102.21" cy="138.899" r="3"/>
<circle clip-path="url(#clip8802)" style="fill:#000000; stroke:none; fill-opacity:1" cx="157.12" cy="96.4807" r="4"/>
<circle clip-path="url(#clip8802)" style="fill:#009af9; stroke:none; fill-opacity:1" cx="157.12" cy="96.4807" r="3"/>
<circle clip-path="url(#clip8802)" style="fill:#000000; stroke:none; fill-opacity:1" cx="212.03" cy="283.098" r="4"/>
<circle clip-path="url(#clip8802)" style="fill:#009af9; stroke:none; fill-opacity:1" cx="212.03" cy="283.098" r="3"/>
<circle clip-path="url(#clip8802)" style="fill:#000000; stroke:none; fill-opacity:1" cx="266.94" cy="284.177" r="4"/>
<circle clip-path="url(#clip8802)" style="fill:#009af9; stroke:none; fill-opacity:1" cx="266.94" cy="284.177" r="3"/>
<circle clip-path="url(#clip8802)" style="fill:#000000; stroke:none; fill-opacity:1" cx="321.85" cy="36.0286" r="4"/>
<circle clip-path="url(#clip8802)" style="fill:#009af9; stroke:none; fill-opacity:1" cx="321.85" cy="36.0286" r="3"/>
<circle clip-path="url(#clip8802)" style="fill:#000000; stroke:none; fill-opacity:1" cx="376.76" cy="271.158" r="4"/>
<circle clip-path="url(#clip8802)" style="fill:#009af9; stroke:none; fill-opacity:1" cx="376.76" cy="271.158" r="3"/>
<circle clip-path="url(#clip8802)" style="fill:#000000; stroke:none; fill-opacity:1" cx="431.669" cy="21.6617" r="4"/>
<circle clip-path="url(#clip8802)" style="fill:#009af9; stroke:none; fill-opacity:1" cx="431.669" cy="21.6617" r="3"/>
<circle clip-path="url(#clip8802)" style="fill:#000000; stroke:none; fill-opacity:1" cx="486.579" cy="313.55" r="4"/>
<circle clip-path="url(#clip8802)" style="fill:#009af9; stroke:none; fill-opacity:1" cx="486.579" cy="313.55" r="3"/>
<circle clip-path="url(#clip8802)" style="fill:#000000; stroke:none; fill-opacity:1" cx="541.489" cy="350.018" r="4"/>
<circle clip-path="url(#clip8802)" style="fill:#009af9; stroke:none; fill-opacity:1" cx="541.489" cy="350.018" r="3"/>
<polygon clip-path="url(#clip8800)" points="
468.728,61.491 539.035,61.491 539.035,31.251 468.728,31.251 
  " fill="#ffffff" fill-opacity="1"/>
<polyline clip-path="url(#clip8800)" style="stroke:#000000; stroke-width:1; stroke-opacity:1; fill:none" points="
  468.728,61.491 539.035,61.491 539.035,31.251 468.728,31.251 468.728,61.491 
  "/>
<circle clip-path="url(#clip8800)" style="fill:#000000; stroke:none; fill-opacity:1" cx="494.648" cy="46.371" r="6"/>
<circle clip-path="url(#clip8800)" style="fill:#009af9; stroke:none; fill-opacity:1" cx="494.648" cy="46.371" r="5"/>
<g clip-path="url(#clip8800)">
<text style="fill:#000000; fill-opacity:1; font-family:Arial,Helvetica Neue,Helvetica,sans-serif; font-size:12; text-anchor:start;" transform="rotate(0, 514.808, 50.871)" x="514.808" y="50.871">y1</text>
</g>
</svg>
